<?xml version="1.0" encoding="UTF-8"?>
<svg version="1.1" xmlns="http://www.w3.org/2000/svg" width="1528" height="1528">
<path d="M0 0 C1.61998523 -0.00701958 3.23997017 -0.01410642 4.85995483 -0.02125549 C10.00950516 -0.04066479 15.15901054 -0.04568941 20.30859375 -0.046875 C21.1851424 -0.04731686 22.06169106 -0.04775871 22.96480179 -0.04821396 C47.92652265 -0.05481714 72.76495621 0.00995817 97.58709717 2.94989014 C99.87356329 3.21807627 102.16134366 3.47168437 104.44970703 3.72314453 C189.58808664 13.16337968 271.30927822 36.80632938 389.99707031 93.66455078 C392.810958 95.23942824 395.63349373 96.79796902 398.45703125 98.35546875 C411.88687254 105.80578179 424.89831371 113.79193567 437.74609375 122.203125 C438.54917969 122.72793457 439.35226562 123.25274414 440.1796875 123.79345703 C464.34140398 139.62822588 487.52890485 156.73290651 509.74609375 175.203125 C510.33358398 175.69151855 510.92107422 176.17991211 511.52636719 176.68310547 C517.87490116 181.97710705 524.12594126 187.36643296 530.234375 192.9375 C532.31357586 194.81298444 534.41354563 196.65614674 536.52734375 198.4921875 C540.7503118 202.17969682 544.85231026 205.98507911 548.93359375 209.828125 C549.61873047 210.47007812 550.30386719 211.11203125 551.00976562 211.7734375 C552.92884153 213.57614981 554.83917963 215.38756319 556.74609375 217.203125 C557.27412598 217.6990918 557.8021582 218.19505859 558.34619141 218.70605469 C559.51886975 219.83212288 560.6391615 221.01236681 561.74609375 222.203125 C561.74609375 222.863125 561.74609375 223.523125 561.74609375 224.203125 C562.28621094 224.41710937 562.82632812 224.63109375 563.3828125 224.8515625 C566.59653015 226.68949028 568.99526222 229.19982238 571.55859375 231.828125 C572.09484375 232.37154541 572.63109375 232.91496582 573.18359375 233.47485352 C576.52996874 236.88959422 579.74934885 240.38103709 582.84765625 244.0234375 C584.86586508 246.34064023 586.94928502 248.58495944 589.046875 250.83007812 C594.04711813 256.18393646 598.83103403 261.63048761 603.41796875 267.34765625 C605.56011375 269.97501866 607.7572012 272.53687509 609.984375 275.09155273 C616.72871335 282.83904606 622.99899961 290.891352 629.16552734 299.10351562 C630.65842195 301.08666261 632.16299138 303.06025482 633.671875 305.03125 C646.95340068 322.44975496 659.31396737 340.52126208 670.74609375 359.203125 C671.2246582 359.98155762 671.70322266 360.75999023 672.19628906 361.56201172 C702.95037643 411.71435767 727.84564262 464.50913509 746.74609375 520.203125 C747.29740967 521.80438232 747.29740967 521.80438232 747.85986328 523.43798828 C767.3950948 580.47811167 778.55032161 640.09597001 783.984375 700.04296875 C784.04762466 700.73330704 784.11087433 701.42364532 784.17604065 702.13490295 C785.35421949 715.58601341 785.91292403 728.96109131 785.94921875 742.45703125 C785.95623833 744.07701648 785.96332517 745.69700142 785.97047424 747.31698608 C785.98988354 752.46653641 785.99490816 757.61604179 785.99609375 762.765625 C785.99653561 763.64217365 785.99697746 764.51872231 785.99743271 765.42183304 C786.00403589 790.3835539 785.93926058 815.22198746 782.99932861 840.04412842 C782.73114248 842.33059454 782.47753438 844.61837491 782.22607422 846.90673828 C772.78583907 932.04511789 749.14288937 1013.76630947 692.28466797 1132.45410156 C690.70979051 1135.26798925 689.15124973 1138.09052498 687.59375 1140.9140625 C680.14343696 1154.34390379 672.15728308 1167.35534496 663.74609375 1180.203125 C663.22128418 1181.00621094 662.69647461 1181.80929687 662.15576172 1182.63671875 C646.32099287 1206.79843523 629.21631224 1229.9859361 610.74609375 1252.203125 C610.2577002 1252.79061523 609.76930664 1253.37810547 609.26611328 1253.98339844 C603.9721117 1260.33193241 598.58278579 1266.58297251 593.01171875 1272.69140625 C591.13623431 1274.77060711 589.29307201 1276.87057688 587.45703125 1278.984375 C583.76952193 1283.20734305 579.96413964 1287.30934151 576.12109375 1291.390625 C575.47914062 1292.07576172 574.8371875 1292.76089844 574.17578125 1293.46679688 C572.37306894 1295.38587278 570.56165556 1297.29621088 568.74609375 1299.203125 C568.25012695 1299.73115723 567.75416016 1300.25918945 567.24316406 1300.80322266 C566.11709587 1301.975901 564.93685194 1303.09619275 563.74609375 1304.203125 C563.08609375 1304.203125 562.42609375 1304.203125 561.74609375 1304.203125 C561.53210937 1304.74324219 561.318125 1305.28335937 561.09765625 1305.83984375 C559.25972847 1309.0535614 556.74939637 1311.45229347 554.12109375 1314.015625 C553.57767334 1314.551875 553.03425293 1315.088125 552.47436523 1315.640625 C549.05962453 1318.98699999 545.56818166 1322.2063801 541.92578125 1325.3046875 C539.60857852 1327.32289633 537.36425931 1329.40631627 535.11914062 1331.50390625 C529.76528229 1336.50414938 524.31873114 1341.28806528 518.6015625 1345.875 C515.97420009 1348.017145 513.41234366 1350.21423245 510.85766602 1352.44140625 C503.11017269 1359.1857446 495.05786675 1365.45603086 486.84570312 1371.62255859 C484.86255614 1373.1154532 482.88896393 1374.62002263 480.91796875 1376.12890625 C463.49946379 1389.41043193 445.42795667 1401.77099862 426.74609375 1413.203125 C425.96766113 1413.68168945 425.18922852 1414.16025391 424.38720703 1414.65332031 C374.23486108 1445.40740768 321.44008366 1470.30267387 265.74609375 1489.203125 C264.14483643 1489.75444092 264.14483643 1489.75444092 262.51123047 1490.31689453 C205.47110708 1509.85212605 145.85324874 1521.00735286 85.90625 1526.44140625 C85.21591171 1526.50465591 84.52557343 1526.56790558 83.8143158 1526.6330719 C70.36320534 1527.81125074 56.98812744 1528.36995528 43.4921875 1528.40625 C41.87220227 1528.41326958 40.25221733 1528.42035642 38.63223267 1528.42750549 C33.48268234 1528.44691479 28.33317696 1528.45193941 23.18359375 1528.453125 C21.86877077 1528.45378778 21.86877077 1528.45378778 20.52738571 1528.45446396 C-4.43433515 1528.46106714 -29.27276871 1528.39629183 -54.09490967 1525.45635986 C-56.38137579 1525.18817373 -58.66915616 1524.93456563 -60.95751953 1524.68310547 C-146.09589914 1515.24287032 -227.81709072 1491.59992062 -346.50488281 1434.74169922 C-349.3187705 1433.16682176 -352.14130623 1431.60828098 -354.96484375 1430.05078125 C-368.39468504 1422.60046821 -381.40612621 1414.61431433 -394.25390625 1406.203125 C-395.45853516 1405.41591064 -395.45853516 1405.41591064 -396.6875 1404.61279297 C-420.84921648 1388.77802412 -444.03671735 1371.67334349 -466.25390625 1353.203125 C-466.84139648 1352.71473145 -467.42888672 1352.22633789 -468.03417969 1351.72314453 C-474.38271366 1346.42914295 -480.63375376 1341.03981704 -486.7421875 1335.46875 C-488.82138836 1333.59326556 -490.92135813 1331.75010326 -493.03515625 1329.9140625 C-497.2581243 1326.22655318 -501.36012276 1322.42117089 -505.44140625 1318.578125 C-506.12654297 1317.93617187 -506.81167969 1317.29421875 -507.51757812 1316.6328125 C-509.43665403 1314.83010019 -511.34699213 1313.01868681 -513.25390625 1311.203125 C-513.78193848 1310.7071582 -514.3099707 1310.21119141 -514.85400391 1309.70019531 C-516.02668225 1308.57412712 -517.146974 1307.39388319 -518.25390625 1306.203125 C-518.25390625 1305.543125 -518.25390625 1304.883125 -518.25390625 1304.203125 C-518.79402344 1303.98914062 -519.33414063 1303.77515625 -519.890625 1303.5546875 C-523.10434265 1301.71675972 -525.50307472 1299.20642762 -528.06640625 1296.578125 C-528.60265625 1296.03470459 -529.13890625 1295.49128418 -529.69140625 1294.93139648 C-533.03778124 1291.51665578 -536.25716135 1288.02521291 -539.35546875 1284.3828125 C-541.37367758 1282.06560977 -543.45709752 1279.82129056 -545.5546875 1277.57617188 C-550.55493063 1272.22231354 -555.33884653 1266.77576239 -559.92578125 1261.05859375 C-562.06792625 1258.43123134 -564.2650137 1255.86937491 -566.4921875 1253.31469727 C-573.23652585 1245.56720394 -579.50681211 1237.514898 -585.67333984 1229.30273438 C-587.16623445 1227.31958739 -588.67080388 1225.34599518 -590.1796875 1223.375 C-603.46121318 1205.95649504 -615.82177987 1187.88498792 -627.25390625 1169.203125 C-627.7324707 1168.42469238 -628.21103516 1167.64625977 -628.70410156 1166.84423828 C-659.45818893 1116.69189233 -684.35345512 1063.89711491 -703.25390625 1008.203125 C-703.6214502 1007.13562012 -703.98899414 1006.06811523 -704.36767578 1004.96826172 C-723.9029073 947.92813833 -735.05813411 888.31027999 -740.4921875 828.36328125 C-740.55543716 827.67294296 -740.61868683 826.98260468 -740.68385315 826.27134705 C-741.86203199 812.82023659 -742.42073653 799.44515869 -742.45703125 785.94921875 C-742.46405083 784.32923352 -742.47113767 782.70924858 -742.47828674 781.08926392 C-742.49769604 775.93971359 -742.50272066 770.79020821 -742.50390625 765.640625 C-742.50434811 764.76407635 -742.50478996 763.88752769 -742.50524521 762.98441696 C-742.51184839 738.0226961 -742.44707308 713.18426254 -739.50714111 688.36212158 C-739.23895498 686.07565546 -738.98534688 683.78787509 -738.73388672 681.49951172 C-729.29365157 596.36113211 -705.65070187 514.63994053 -648.79248047 395.95214844 C-647.21760301 393.13826075 -645.65906223 390.31572502 -644.1015625 387.4921875 C-636.65124946 374.06234621 -628.66509558 361.05090504 -620.25390625 348.203125 C-619.46669189 346.99849609 -619.46669189 346.99849609 -618.66357422 345.76953125 C-602.82880537 321.60781477 -585.72412474 298.4203139 -567.25390625 276.203125 C-566.7655127 275.61563477 -566.27711914 275.02814453 -565.77392578 274.42285156 C-560.4799242 268.07431759 -555.09059829 261.82327749 -549.51953125 255.71484375 C-547.64404681 253.63564289 -545.80088451 251.53567312 -543.96484375 249.421875 C-540.27733443 245.19890695 -536.47195214 241.09690849 -532.62890625 237.015625 C-531.98695313 236.33048828 -531.345 235.64535156 -530.68359375 234.93945312 C-528.88088144 233.02037722 -527.06946806 231.11003912 -525.25390625 229.203125 C-524.75793945 228.67509277 -524.26197266 228.14706055 -523.75097656 227.60302734 C-522.62490837 226.430349 -521.44466444 225.31005725 -520.25390625 224.203125 C-519.59390625 224.203125 -518.93390625 224.203125 -518.25390625 224.203125 C-518.03992188 223.66300781 -517.8259375 223.12289062 -517.60546875 222.56640625 C-515.76754097 219.3526886 -513.25720887 216.95395653 -510.62890625 214.390625 C-510.08548584 213.854375 -509.54206543 213.318125 -508.98217773 212.765625 C-505.56743703 209.41925001 -502.07599416 206.1998699 -498.43359375 203.1015625 C-496.11639102 201.08335367 -493.87207181 198.99993373 -491.62695312 196.90234375 C-486.27309479 191.90210062 -480.82654364 187.11818472 -475.109375 182.53125 C-472.48201259 180.389105 -469.92015616 178.19201755 -467.36547852 175.96484375 C-459.61798519 169.2205054 -451.56567925 162.95021914 -443.35351562 156.78369141 C-441.37036864 155.2907968 -439.39677643 153.78622737 -437.42578125 152.27734375 C-420.00727629 138.99581807 -401.93576917 126.63525138 -383.25390625 115.203125 C-382.47547363 114.72456055 -381.69704102 114.24599609 -380.89501953 113.75292969 C-330.74267358 82.99884232 -277.94789616 58.10357613 -222.25390625 39.203125 C-221.18640137 38.83558105 -220.11889648 38.46803711 -219.01904297 38.08935547 C-161.97891958 18.55412395 -102.36106124 7.39889714 -42.4140625 1.96484375 C-41.72372421 1.90159409 -41.03338593 1.83834442 -40.3221283 1.7731781 C-26.87101784 0.59499926 -13.49593994 0.03629472 0 0 Z " fill="#FE5B30" transform="translate(742.25390625,-0.203125)"/>
<path d="M0 0 C0.30683716 0.82346924 0.30683716 0.82346924 0.61987305 1.66357422 C3.39892449 9.11444469 6.195798 16.55856264 9 24 C9.23950378 24.63601135 9.47900757 25.27202271 9.72576904 25.92730713 C25.51821161 67.84674988 42.64925989 109.13393047 61 150 C61.57142603 151.27679418 62.14271191 152.55365109 62.71386719 153.83056641 C71.46991506 173.39194028 80.6273873 192.72921937 90.05924988 211.97323608 C92.60886013 217.18165642 95.10769699 222.41286524 97.59033203 227.65356445 C114.27208019 262.81697922 132.92578308 297.09082182 152 331 C152.64050293 332.13937012 153.28100586 333.27874023 153.94091797 334.45263672 C162.4023665 349.46923283 171.1298146 364.29812686 180.12458801 379.00132751 C183.54337323 384.59030814 186.90204915 390.20683868 190.1875 395.875 C195.55328108 405.08989842 201.3234502 414.044331 207.08642578 423.01416016 C209.06510295 426.1015832 211.03177388 429.19639378 212.99609375 432.29296875 C220.62357808 444.29972069 228.40107171 456.17045323 236.51367188 467.85498047 C237.95930165 469.94126549 239.3955502 472.03364039 240.828125 474.12890625 C247.45609803 483.82083131 254.18924751 493.43568996 261 503 C261.76135254 504.07072754 261.76135254 504.07072754 262.53808594 505.16308594 C271.42953082 517.64476725 280.66503368 529.84770103 290 542 C290.95077534 543.24199271 291.90132596 544.48415751 292.8515625 545.7265625 C295.22432482 548.82552137 297.60930419 551.91484497 300 555 C300.41491699 555.5357666 300.82983398 556.0715332 301.25732422 556.62353516 C311.24386785 569.49549665 321.60545987 582.06009141 332.16577148 594.46459961 C335.01308934 597.81379611 337.79998975 601.20566913 340.5625 604.625 C344.43812933 609.38807218 348.51234289 613.93364249 352.66796875 618.453125 C354.62405252 620.58941749 356.54187697 622.74780657 358.4375 624.9375 C362.704259 629.84227904 367.11581206 634.61350981 371.52197266 639.39257812 C372.99228908 640.99161403 374.4557958 642.59664257 375.91796875 644.203125 C381.61732369 650.44653504 387.45443503 656.50523733 393.46704102 662.44775391 C397.51563039 666.4659866 401.32974613 670.63204611 405 675 C400.8764134 679.91330737 396.59576619 684.54999339 392.05717278 689.07984161 C391.37947537 689.76019085 390.70177796 690.44054008 390.00354427 691.14150596 C387.73663139 693.41606614 385.46621003 695.6870906 383.19577026 697.95812988 C381.5515674 699.60635028 379.90757537 701.25478101 378.26377594 702.90340376 C374.22248016 706.95538592 370.17885766 711.00503544 366.1342135 715.05367508 C361.28807231 719.90484053 356.44478776 724.75885429 351.60150105 729.61286927 C339.34653545 741.89462464 327.08571396 754.17052804 314.82408303 766.4456284 C311.50416924 769.76921412 308.18442094 773.09296511 304.86471033 776.41675377 C284.2578751 797.04883804 263.64943859 817.67932143 243.03619194 838.30500031 C238.26515253 843.07896098 233.49413627 847.8529448 228.72314453 852.62695312 C227.83405397 853.51660005 227.83405397 853.51660005 226.92700199 854.42421963 C207.68328113 873.68011243 188.44898532 892.94538474 169.22001376 912.21600542 C149.45165084 932.02710776 129.67526422 951.83016232 109.88813995 971.62252701 C107.09679275 974.41461469 104.30553067 977.20678745 101.51431656 979.99900818 C100.96497136 980.54854399 100.41562616 981.0980798 99.84963414 981.66426821 C90.993979 990.52344275 82.1467543 999.39099074 73.30253811 1008.26158326 C64.42468968 1017.16551012 55.53774592 1026.06027548 46.64134942 1034.94567066 C41.81821801 1039.7633342 36.99924006 1044.58498499 32.19148636 1049.41799927 C27.79691067 1053.83487898 23.39113852 1058.24024742 18.97585632 1062.63642544 C17.37401346 1064.23544178 15.77645841 1065.83876645 14.18348037 1067.44661433 C12.03061988 1069.61834963 9.86319559 1071.77437149 7.69114494 1073.92688751 C7.0648386 1074.56604308 6.43853225 1075.20519865 5.79324692 1075.86372256 C4.04187763 1077.58026552 4.04187763 1077.58026552 1 1080 C-2.17571314 1079.58292824 -3.76665735 1078.60480183 -5.98828125 1076.33984375 C-6.52590088 1075.79779297 -7.06352051 1075.25574219 -7.61743164 1074.69726562 C-8.1768042 1074.11654297 -8.73617676 1073.53582031 -9.3125 1072.9375 C-9.89572021 1072.34259766 -10.47894043 1071.74769531 -11.07983398 1071.13476562 C-14.55172729 1067.5702691 -17.91700319 1063.93948135 -21.13671875 1060.14453125 C-23.14069659 1057.83806619 -25.21282141 1055.60753961 -27.29858398 1053.37524414 C-32.2997841 1048.02085411 -37.08429378 1042.57344319 -41.671875 1036.85546875 C-43.81402 1034.22810634 -46.01110745 1031.66624991 -48.23828125 1029.11157227 C-54.9826196 1021.36407894 -61.25290586 1013.311773 -67.41943359 1005.09960938 C-68.9123282 1003.11646239 -70.41689763 1001.14287018 -71.92578125 999.171875 C-85.20730693 981.75337004 -97.56787362 963.68186292 -109 945 C-109.47856445 944.22156738 -109.95712891 943.44313477 -110.45019531 942.64111328 C-141.20428268 892.48876733 -166.09954887 839.69398991 -185 784 C-185.36754395 782.93249512 -185.73508789 781.86499023 -186.11376953 780.76513672 C-205.64900105 723.72501333 -216.80422786 664.10715499 -222.23828125 604.16015625 C-222.30153091 603.46981796 -222.36478058 602.77947968 -222.4299469 602.06822205 C-223.60812574 588.61711159 -224.16683028 575.24203369 -224.203125 561.74609375 C-224.21014458 560.12610852 -224.21723142 558.50612358 -224.22438049 556.88613892 C-224.24378979 551.73658859 -224.24881441 546.58708321 -224.25 541.4375 C-224.25044186 540.56095135 -224.25088371 539.68440269 -224.25133896 538.78129196 C-224.25794214 513.8195711 -224.19316683 488.98113754 -221.25323486 464.15899658 C-220.98504873 461.87253046 -220.73144063 459.58475009 -220.47998047 457.29638672 C-211.03974532 372.15800711 -187.39679562 290.43681553 -130.53857422 171.74902344 C-128.96369676 168.93513575 -127.40515598 166.11260002 -125.84765625 163.2890625 C-118.39734321 149.85922121 -110.41118933 136.84778004 -102 124 C-101.47519043 123.19691406 -100.95038086 122.39382813 -100.40966797 121.56640625 C-84.57489912 97.40468977 -67.47021849 74.2171889 -49 52 C-48.51160645 51.41250977 -48.02321289 50.82501953 -47.52001953 50.21972656 C-42.22601795 43.87119259 -36.83669204 37.62015249 -31.265625 31.51171875 C-29.39014056 29.43251789 -27.54697826 27.33254812 -25.7109375 25.21875 C-22.02342818 20.99578195 -18.21804589 16.89378349 -14.375 12.8125 C-13.73304688 12.12736328 -13.09109375 11.44222656 -12.4296875 10.73632812 C-10.62697519 8.81725222 -8.81556181 6.90691412 -7 5 C-6.5040332 4.47196777 -6.00806641 3.94393555 -5.49707031 3.39990234 C-2.23230302 0 -2.23230302 0 0 0 Z " fill="#A2BAFE" transform="translate(224,224)"/>
<path d="M0 0 C2.89244334 1.38958957 4.9337626 2.70038069 7.171875 5.01171875 C7.74977783 5.60122314 8.32768066 6.19072754 8.9230957 6.7980957 C9.52597412 7.42159912 10.12885254 8.04510254 10.75 8.6875 C15.08039603 13.09822285 19.42379645 17.3672648 24.14453125 21.36328125 C26.36163584 23.31900088 28.42375912 25.3955589 30.5 27.5 C33.80986698 30.84933729 37.20746949 33.99925956 40.78125 37.0625 C42.9839127 38.98595193 45.13296486 40.96089901 47.27636719 42.94995117 C52.4613435 47.75998085 57.7728882 52.31720269 63.28515625 56.75390625 C66.10673495 59.0883059 68.80590712 61.51990598 71.5 64 C76.30786903 68.41511354 81.27409325 72.56654482 86.35400391 76.66308594 C88.95698886 78.7772873 91.53567641 80.92071329 94.1184082 83.05957031 C101.70303996 89.33522645 109.35750615 95.50444387 117.13085938 101.54443359 C119.15946477 103.1241809 121.18147426 104.712145 123.203125 106.30078125 C133.20745902 114.14558943 143.36239519 121.75788142 153.62646484 129.25878906 C155.96278683 130.97270065 158.28949868 132.69882247 160.61328125 134.4296875 C179.29224496 148.32865595 198.5088059 161.39711588 217.875 174.3125 C219.10675964 175.13421692 219.10675964 175.13421692 220.36340332 175.97253418 C235.28709197 185.92091402 250.28385284 195.75327274 265.5 205.25 C266.50571045 205.877854 267.5114209 206.50570801 268.54760742 207.15258789 C278.88336662 213.58271277 289.31231448 219.85324614 299.77294922 226.07763672 C303.06179069 228.03680889 306.3455213 230.00435565 309.62890625 231.97265625 C331.17855084 244.85801075 353.13226568 256.96491696 375.23046875 268.87890625 C379.03464437 270.93163865 382.82842235 273.00171425 386.61328125 275.08984375 C396.63817837 280.61530099 406.72715594 285.93869705 416.98999023 291.00976562 C422.60927473 293.78933563 428.1630427 296.66232205 433.6875 299.625 C467.58946021 317.68091646 502.88300714 333.48738407 538 349 C539.17401367 349.51884766 540.34802734 350.03769531 541.55761719 350.57226562 C585.66364328 370.00553803 630.48092673 388.13792539 676 404 C674.15272881 408.01135528 671.5055693 410.75931772 668.375 413.8125 C667.83157959 414.34875 667.28815918 414.885 666.72827148 415.4375 C663.31353078 418.78387499 659.82208791 422.0032551 656.1796875 425.1015625 C653.86248477 427.11977133 651.61816556 429.20319127 649.37304688 431.30078125 C644.01918854 436.30102438 638.57263739 441.08494028 632.85546875 445.671875 C630.22810634 447.81402 627.66624991 450.01110745 625.11157227 452.23828125 C617.36407894 458.9826196 609.311773 465.25290586 601.09960938 471.41943359 C599.11646239 472.9123282 597.14287018 474.41689763 595.171875 475.92578125 C577.75337004 489.20730693 559.68186292 501.56787362 541 513 C540.22156738 513.47856445 539.44313477 513.95712891 538.64111328 514.45019531 C488.48876733 545.20428268 435.69398991 570.09954887 380 589 C378.39874268 589.55131592 378.39874268 589.55131592 376.76513672 590.11376953 C319.72501333 609.64900105 260.10715499 620.80422786 200.16015625 626.23828125 C199.46981796 626.30153091 198.77947968 626.36478058 198.06822205 626.4299469 C184.61711159 627.60812574 171.24203369 628.16683028 157.74609375 628.203125 C156.12610852 628.21014458 154.50612358 628.21723142 152.88613892 628.22438049 C147.73658859 628.24378979 142.58708321 628.24881441 137.4375 628.25 C136.56095135 628.25044186 135.68440269 628.25088371 134.78129196 628.25133896 C109.8195711 628.25794214 84.98113754 628.19316683 60.15899658 625.25323486 C57.87253046 624.98504873 55.58475009 624.73144063 53.29638672 624.47998047 C-31.84199289 615.03974532 -113.56318447 591.39679562 -232.25097656 534.53857422 C-235.06486425 532.96369676 -237.88739998 531.40515598 -240.7109375 529.84765625 C-254.14077879 522.39734321 -267.15221996 514.41118933 -280 506 C-280.80308594 505.47519043 -281.60617187 504.95038086 -282.43359375 504.40966797 C-306.59531023 488.57489912 -329.7828111 471.47021849 -352 453 C-352.88123535 452.26740967 -352.88123535 452.26740967 -353.78027344 451.52001953 C-360.12880741 446.22601795 -366.37984751 440.83669204 -372.48828125 435.265625 C-374.56748211 433.39014056 -376.66745188 431.54697826 -378.78125 429.7109375 C-383.00421805 426.02342818 -387.10621651 422.21804589 -391.1875 418.375 C-391.87263672 417.73304688 -392.55777344 417.09109375 -393.26367188 416.4296875 C-396.90369222 413.01038061 -400.49249822 409.55517656 -404 406 C-402.71265667 403.17343006 -401.3676719 401.11790981 -399.17396724 398.92557025 C-398.59323894 398.34034736 -398.01251064 397.75512447 -397.41418451 397.15216756 C-396.77449167 396.51772875 -396.13479883 395.88328993 -395.47572136 395.2296257 C-394.79468745 394.5462841 -394.11365354 393.8629425 -393.41198224 393.15889359 C-391.11206162 390.85364855 -388.80503322 388.5556491 -386.49801636 386.25750732 C-384.83769306 384.59631246 -383.17780908 382.93467841 -381.51832879 381.27264142 C-377.42417091 377.17446749 -373.3253663 373.08098284 -369.22461418 368.98940817 C-364.31435425 364.08961092 -359.40990608 359.18401222 -354.50567591 354.27818098 C-345.45436096 345.22423658 -336.39839321 336.17495957 -327.3397789 327.12831879 C-318.36858227 318.1689498 -309.39945102 309.20752151 -300.43307877 300.24332428 C-299.87590484 299.68628783 -299.31873091 299.12925139 -298.74467293 298.55533505 C-295.91516343 295.7265022 -293.08569086 292.8976324 -290.25623251 290.06874838 C-270.20688299 270.02360144 -250.1528989 249.983097 -230.09619141 229.9453125 C-210.60947054 210.47695567 -191.12484798 191.00650271 -171.64306641 171.53320312 C-171.04271898 170.93311875 -170.44237156 170.33303438 -169.82383179 169.71476563 C-163.79498538 163.68855623 -157.76618166 157.66230414 -151.7374092 151.63602076 C-139.45573081 139.35941501 -127.17376755 127.08309426 -114.89163208 114.8069458 C-114.32690011 114.24248841 -113.76216815 113.67803103 -113.18032309 113.09646887 C-75.45831964 75.39287166 -37.72965532 37.69593986 0 0 Z " fill="#001B64" transform="translate(628,900)"/>
<path d="M0 0 C21.24724759 18.32103134 34.34896606 42.34926377 41.875 69.125 C42.2359375 70.37667969 42.596875 71.62835938 42.96875 72.91796875 C50.98923045 106.96787882 42.62516347 143.63886469 24.875 173.125 C22.4072963 176.97641609 19.74706681 180.56668714 16.875 184.125 C16.44880371 184.66189453 16.02260742 185.19878906 15.58349609 185.75195312 C-3.27316696 209.35105031 -28.88643876 225.53010543 -58.125 233.125 C-59.35734375 233.44597656 -60.5896875 233.76695312 -61.859375 234.09765625 C-80.96061225 238.22091529 -103.22390693 238.35540774 -122.125 233.125 C-122.91567871 232.9098877 -123.70635742 232.69477539 -124.52099609 232.47314453 C-143.84441567 227.02977161 -161.90364756 218.30868812 -177.125 205.125 C-177.63853027 204.68687988 -178.15206055 204.24875977 -178.68115234 203.79736328 C-200.09827261 185.42376335 -215.23961403 160.47356009 -222.125 133.125 C-222.44339844 131.8978125 -222.76179688 130.670625 -223.08984375 129.40625 C-227.23384378 110.30947566 -227.35494785 88.02443116 -222.125 69.125 C-221.80233154 67.93898193 -221.80233154 67.93898193 -221.47314453 66.72900391 C-216.02182452 47.377373 -207.27861264 29.39947201 -194.125 14.125 C-193.37476563 13.23683594 -192.62453125 12.34867187 -191.8515625 11.43359375 C-173.3346649 -9.8445956 -149.13707742 -23.45779367 -122.125 -30.875 C-121.42793945 -31.06707031 -120.73087891 -31.25914062 -120.01269531 -31.45703125 C-77.37288372 -42.51257864 -32.68234904 -27.56757012 0 0 Z " fill="#FFC230" transform="translate(1259.125,257.875)"/>
</svg>
